<?xml version="1.0" encoding="UTF-8" standalone="no"?>
<!-- Created with Inkscape (http://www.inkscape.org/) -->

<svg
   xmlns:dc="http://purl.org/dc/elements/1.1/"
   xmlns:cc="http://creativecommons.org/ns#"
   xmlns:rdf="http://www.w3.org/1999/02/22-rdf-syntax-ns#"
   xmlns:svg="http://www.w3.org/2000/svg"
   xmlns="http://www.w3.org/2000/svg"
   xmlns:sodipodi="http://sodipodi.sourceforge.net/DTD/sodipodi-0.dtd"
   xmlns:inkscape="http://www.inkscape.org/namespaces/inkscape"
   width="53.726978mm"
   height="48.985123mm"
   viewBox="0 0 53.726978 48.985123"
   version="1.1"
   id="svg1634"
   inkscape:version="0.92.3 (unknown)"
   sodipodi:docname="favicon-mask.svg">
  <defs
     id="defs1628">
    <clipPath
       clipPathUnits="userSpaceOnUse"
       id="clipPath1526">
      <path
         d="m 65.512,879.758 h 159.09 V 736.153 H 65.512 Z"
         id="path1524"
         inkscape:connector-curvature="0" />
    </clipPath>
    <clipPath
       clipPathUnits="userSpaceOnUse"
       id="clipPath1536">
      <path
         d="M 71,741 H 219 V 874 H 71 Z"
         id="path1534"
         inkscape:connector-curvature="0" />
    </clipPath>
    <clipPath
       clipPathUnits="userSpaceOnUse"
       id="clipPath1526-3">
      <path
         d="m 65.512,879.758 h 159.09 V 736.153 H 65.512 Z"
         id="path1524-6"
         inkscape:connector-curvature="0" />
    </clipPath>
    <clipPath
       clipPathUnits="userSpaceOnUse"
       id="clipPath1536-7">
      <path
         d="M 71,741 H 219 V 874 H 71 Z"
         id="path1534-5"
         inkscape:connector-curvature="0" />
    </clipPath>
  </defs>
  <sodipodi:namedview
     id="base"
     pagecolor="#ffffff"
     bordercolor="#666666"
     borderopacity="1.0"
     inkscape:pageopacity="0.0"
     inkscape:pageshadow="2"
     inkscape:zoom="1.979899"
     inkscape:cx="31.432509"
     inkscape:cy="119.04684"
     inkscape:document-units="mm"
     inkscape:current-layer="layer1"
     showgrid="false"
     fit-margin-top="0"
     fit-margin-left="0"
     fit-margin-right="0"
     fit-margin-bottom="0"
     inkscape:window-width="1839"
     inkscape:window-height="1050"
     inkscape:window-x="81"
     inkscape:window-y="30"
     inkscape:window-maximized="1" />
  <metadata
     id="metadata1631">
    <rdf:RDF>
      <cc:Work
         rdf:about="">
        <dc:format>image/svg+xml</dc:format>
        <dc:type
           rdf:resource="http://purl.org/dc/dcmitype/StillImage" />
        <dc:title />
      </cc:Work>
    </rdf:RDF>
  </metadata>
  <g
     inkscape:label="Layer 1"
     inkscape:groupmode="layer"
     id="layer1"
     transform="translate(-53.956598,-128.83063)">
    <g
       transform="matrix(0.08615215,0,0,-0.05628908,52.33487,178.87534)"
       id="g12">
      <path
         d="M 18.824,889.066 H 642.453 V 18.824 H 18.824 Z"
         style="fill:#3f52ac;fill-opacity:1;fill-rule:nonzero;stroke:none"
         id="path14"
         inkscape:connector-curvature="0" />
    </g>
    <g
       transform="matrix(0.35277777,0,0,-0.35277777,29.696914,438.35087)"
       id="g1520">
      <g
         id="g1522"
         clip-path="url(#clipPath1526-3)">
        <g
           id="g1528">
          <g
             id="g1530">
            <g
               id="g1532"
               clip-path="url(#clipPath1536-7)">
              <g
                 id="g1538">
                <path
                   d="m 214.184,803.164 c -2.77,-4.902 -9.157,-9.453 -18.465,-13.16 -2.313,-0.918 -4.762,-1.762 -7.324,-2.543 -0.504,-0.152 -1.012,-0.305 -1.528,-0.453 -0.922,3.082 -1.992,6.23 -3.207,9.422 h -0.008 c -0.859,0 -1.66,0.308 -2.261,0.867 -0.196,0.183 -0.368,0.387 -0.508,0.609 -0.008,-0.008 -0.016,-0.015 -0.024,-0.023 -0.41,-0.379 -0.875,-0.692 -1.386,-0.942 1.465,-3.703 2.738,-7.351 3.804,-10.906 -0.515,-0.129 -1.027,-0.262 -1.547,-0.387 -4.722,-1.132 -9.746,-2.046 -14.984,-2.73 -0.687,-0.086 -1.379,-0.172 -2.074,-0.25 2.207,3.367 4.348,6.867 6.39,10.484 0.665,1.176 1.313,2.352 1.946,3.532 -0.574,0.207 -1.098,0.484 -1.559,0.832 -0.601,-0.696 -1.476,-1.086 -2.445,-1.086 h -0.371 c -0.27,-0.485 -0.539,-0.965 -0.809,-1.45 -2.527,-4.464 -5.195,-8.75 -7.957,-12.812 -0.676,-0.059 -1.359,-0.113 -2.043,-0.164 -4.078,-0.316 -8.246,-0.504 -12.476,-0.543 -4.231,-0.039 -8.399,0.074 -12.485,0.312 -0.683,0.039 -1.367,0.079 -2.047,0.129 -2.836,4.012 -5.582,8.246 -8.187,12.664 -0.449,0.762 -0.891,1.524 -1.328,2.289 -0.27,0.114 -0.524,0.243 -0.77,0.391 -0.644,-0.531 -1.48,-0.816 -2.406,-0.816 h -0.855 c 0.699,-1.254 1.418,-2.504 2.152,-3.754 2.113,-3.578 4.316,-7.035 6.582,-10.364 -0.695,0.067 -1.391,0.137 -2.078,0.215 -5.25,0.586 -10.289,1.407 -15.031,2.45 -0.524,0.117 -1.036,0.242 -1.551,0.363 1.008,3.609 2.226,7.316 3.644,11.09 h -0.754 c -0.507,0 -0.992,0.086 -1.429,0.25 -0.434,-0.16 -0.914,-0.25 -1.43,-0.25 h -0.352 c -1.261,-3.457 -2.363,-6.86 -3.289,-10.184 -0.515,0.137 -1.031,0.277 -1.539,0.422 -2.57,0.734 -5.039,1.535 -7.363,2.41 -12.832,4.836 -20.223,11.43 -20.285,18.094 -0.059,6.664 7.211,13.394 19.949,18.465 2.309,0.918 4.758,1.765 7.32,2.543 0.504,0.156 1.016,0.304 1.528,0.453 0.922,-3.082 1.992,-6.231 3.207,-9.422 h 0.75 c 1.246,0 2.297,-0.52 2.965,-1.371 0.172,0.215 0.371,0.406 0.586,0.574 -1.512,3.801 -2.825,7.547 -3.918,11.191 0.515,0.129 1.027,0.262 1.546,0.387 4.723,1.133 9.747,2.047 14.985,2.731 0.687,0.089 1.379,0.172 2.074,0.254 -2.207,-3.372 -4.344,-6.868 -6.391,-10.485 -0.714,-1.269 -1.41,-2.535 -2.089,-3.804 0.773,-0.454 1.359,-1.176 1.648,-2.079 0.387,0.586 0.836,1.028 1.254,1.352 0.414,0.324 0.871,0.594 1.375,0.809 0.348,0.628 0.695,1.261 1.055,1.89 2.523,4.465 5.191,8.75 7.953,12.813 0.676,0.062 1.359,0.113 2.043,0.168 4.078,0.312 8.246,0.5 12.476,0.539 4.231,0.039 8.403,-0.075 12.485,-0.313 0.683,-0.039 1.367,-0.078 2.047,-0.125 2.835,-4.015 5.582,-8.246 8.187,-12.668 0.602,-1.019 1.191,-2.039 1.766,-3.058 0.195,-0.141 0.382,-0.293 0.562,-0.457 0.152,-0.141 0.309,-0.301 0.465,-0.489 0.211,0.278 0.426,0.508 0.637,0.7 0.582,0.535 1.269,0.941 2.058,1.214 -0.742,1.328 -1.5,2.657 -2.281,3.981 -2.113,3.578 -4.316,7.039 -6.582,10.367 0.695,-0.07 1.391,-0.141 2.078,-0.219 5.25,-0.586 10.289,-1.402 15.031,-2.449 0.524,-0.117 1.036,-0.242 1.555,-0.363 -1.043,-3.719 -2.305,-7.543 -3.777,-11.434 0.668,-0.269 1.254,-0.64 1.765,-1.109 0.008,-0.008 0.016,-0.016 0.024,-0.024 0.14,0.223 0.312,0.43 0.508,0.614 0.488,0.453 1.109,0.742 1.785,0.832 1.265,3.468 2.371,6.882 3.301,10.218 0.519,-0.14 1.031,-0.281 1.539,-0.425 2.574,-0.731 5.039,-1.532 7.367,-2.411 12.828,-4.835 20.219,-11.429 20.281,-18.093 0.016,-1.754 -0.48,-3.539 -1.48,-5.305 m -29.688,-51.992 c -0.976,-1.723 -2.215,-3.035 -3.684,-3.902 -1.527,-0.899 -3.324,-1.344 -5.347,-1.344 -5.449,0 -12.535,3.219 -20.317,9.363 -7.394,5.84 -14.89,13.84 -21.906,23.27 0.688,-0.039 1.375,-0.075 2.063,-0.106 3.312,-0.148 6.675,-0.211 10.074,-0.18 3.394,0.032 6.754,0.157 10.062,0.364 0.692,0.043 1.379,0.093 2.063,0.144 -3.527,-4.926 -7.188,-9.48 -10.906,-13.551 0.879,-0.902 1.757,-1.777 2.636,-2.625 4.504,4.911 8.914,10.504 13.11,16.598 0.703,0.07 1.398,0.149 2.094,0.227 6.382,0.726 12.488,1.781 18.167,3.148 0.52,0.125 1.032,0.262 1.543,0.391 0.872,-3.219 1.571,-6.352 2.063,-9.36 1.598,-9.687 0.988,-17.656 -1.715,-22.437 m -78.781,113.297 c 0.976,1.722 2.215,3.035 3.687,3.902 1.524,0.902 3.321,1.344 5.344,1.344 5.453,0 12.535,-3.219 20.316,-9.363 7.395,-5.84 14.891,-13.84 21.907,-23.266 -0.688,0.035 -1.375,0.074 -2.063,0.102 -3.312,0.148 -6.676,0.21 -10.07,0.179 -3.398,-0.031 -6.758,-0.156 -10.066,-0.363 -0.692,-0.043 -1.379,-0.094 -2.063,-0.145 3.527,4.93 7.188,9.481 10.906,13.551 -0.875,0.902 -1.754,1.778 -2.636,2.629 -4.504,-4.914 -8.915,-10.508 -13.11,-16.601 -0.703,-0.071 -1.398,-0.145 -2.094,-0.227 -6.382,-0.727 -12.488,-1.781 -18.168,-3.149 -0.519,-0.124 -1.031,-0.261 -1.543,-0.39 -0.871,3.219 -1.57,6.351 -2.062,9.359 -1.598,9.688 -0.988,17.657 1.715,22.438 m 90.793,-34.922 c -2.426,0.914 -4.996,1.75 -7.676,2.512 -0.508,0.14 -1.023,0.281 -1.539,0.421 0.844,3.356 1.508,6.625 1.965,9.766 2.23,15.274 -0.52,25.934 -7.735,30.012 -2.062,1.164 -4.394,1.742 -6.953,1.742 -6.402,0 -14.222,-3.605 -22.75,-10.598 -2.008,-1.644 -4.019,-3.457 -6.027,-5.406 0.883,-0.848 1.762,-1.723 2.641,-2.625 1.914,1.856 3.832,3.586 5.746,5.156 7.785,6.383 14.91,9.739 20.394,9.739 1.922,0 3.641,-0.414 5.117,-1.246 5.704,-3.223 7.848,-12.786 5.887,-26.239 -0.441,-3.015 -1.082,-6.164 -1.89,-9.394 -0.516,0.121 -1.032,0.246 -1.555,0.359 -5.703,1.266 -11.824,2.207 -18.219,2.816 -0.695,0.067 -1.394,0.129 -2.098,0.188 -7.734,10.801 -16.144,19.965 -24.445,26.52 -8.516,6.722 -16.281,10.179 -22.625,10.179 -2.684,0 -5.113,-0.621 -7.234,-1.871 -2.071,-1.219 -3.774,-3 -5.071,-5.297 -3.144,-5.562 -3.875,-14.156 -2.113,-24.851 0.516,-3.133 1.242,-6.387 2.145,-9.731 -0.516,-0.148 -1.028,-0.297 -1.532,-0.449 -2.668,-0.812 -5.218,-1.691 -7.625,-2.648 -10.019,-3.989 -16.957,-9.008 -20.07,-14.516 -1.273,-2.258 -1.91,-4.594 -1.887,-6.941 0.075,-8.172 8.012,-15.649 22.348,-21.051 2.422,-0.914 4.992,-1.746 7.672,-2.508 0.508,-0.145 1.023,-0.285 1.539,-0.422 -0.84,-3.359 -1.508,-6.629 -1.965,-9.769 -2.226,-15.274 0.52,-25.934 7.735,-30.012 2.062,-1.164 4.394,-1.738 6.953,-1.738 6.402,0 14.222,3.601 22.75,10.593 2.007,1.649 4.019,3.461 6.027,5.407 -0.883,0.851 -1.762,1.722 -2.641,2.625 -1.914,-1.856 -3.832,-3.586 -5.746,-5.153 -7.785,-6.387 -14.91,-9.738 -20.394,-9.738 -1.922,0 -3.641,0.41 -5.117,1.242 -5.704,3.223 -7.848,12.785 -5.887,26.238 0.441,3.016 1.082,6.164 1.89,9.399 0.516,-0.121 1.032,-0.246 1.555,-0.363 5.703,-1.266 11.828,-2.207 18.219,-2.817 0.695,-0.066 1.394,-0.129 2.098,-0.187 7.734,-10.801 16.144,-19.965 24.445,-26.52 8.515,-6.723 16.281,-10.18 22.625,-10.18 2.683,0 5.113,0.621 7.238,1.871 2.067,1.219 3.77,3 5.067,5.297 l -0.231,0.129 0.231,-0.129 c 3.144,5.563 3.875,14.157 2.113,24.856 -0.516,3.129 -1.242,6.387 -2.145,9.726 0.516,0.149 1.028,0.297 1.532,0.45 2.668,0.812 5.218,1.691 7.628,2.652 14.235,5.664 22.032,13.285 21.954,21.457 -0.075,8.168 -8.012,15.645 -22.344,21.047"
                   style="fill:#ffffff;fill-opacity:1;fill-rule:nonzero;stroke:none"
                   id="path1540"
                   inkscape:connector-curvature="0" />
                <path
                   d="m 95.539,810.113 c 0,-1.23 -0.644,-1.578 -1.578,-1.578 h -1.508 v 5.403 h 1.508 c 0.934,0 1.578,-0.348 1.578,-1.579 z m -3.086,-4.043 h 1.457 l 1.922,-6.066 c 0.176,-0.566 0.543,-0.816 1.109,-0.816 h 0.864 c 0.715,0 1.039,0.468 0.816,1.136 l -2.098,6.188 c 1.184,0.519 1.875,1.554 1.875,3.207 v 3.082 c 0,2.617 -1.726,3.652 -4.339,3.652 h -3.477 c -0.644,0 -0.988,-0.348 -0.988,-0.988 v -15.289 c 0,-0.641 0.344,-0.988 0.988,-0.988 h 0.887 c 0.64,0 0.984,0.347 0.984,0.988 z"
                   style="fill:#ffffff;fill-opacity:1;fill-rule:nonzero;stroke:none"
                   id="path1542"
                   inkscape:connector-curvature="0" />
                <path
                   d="m 100.715,815.465 v -15.289 c 0,-0.641 0.347,-0.988 0.988,-0.988 h 5.672 c 0.641,0 0.984,0.347 0.984,0.988 v 0.543 c 0,0.64 -0.343,0.984 -0.984,0.984 h -3.797 v 4.985 h 2.957 c 0.641,0 0.988,0.343 0.988,0.984 v 0.543 c 0,0.64 -0.347,0.988 -0.988,0.988 h -2.957 v 4.735 h 3.723 c 0.64,0 0.984,0.343 0.984,0.984 v 0.543 c 0,0.64 -0.344,0.988 -0.984,0.988 h -5.598 c -0.641,0 -0.988,-0.348 -0.988,-0.988"
                   style="fill:#ffffff;fill-opacity:1;fill-rule:nonzero;stroke:none"
                   id="path1544"
                   inkscape:connector-curvature="0" />
                <path
                   d="m 112.898,805.402 1.207,7.672 1.211,-7.672 z m -0.714,10.16 -2.836,-15.312 c -0.125,-0.691 0.222,-1.062 0.886,-1.062 H 111 c 0.59,0 0.961,0.296 1.059,0.914 l 0.468,2.933 h 3.157 l 0.468,-2.933 c 0.102,-0.618 0.469,-0.914 1.063,-0.914 h 0.91 c 0.668,0 1.012,0.371 0.891,1.062 l -2.887,15.312 c -0.098,0.594 -0.492,0.891 -1.086,0.891 h -1.773 c -0.594,0 -0.989,-0.297 -1.086,-0.891"
                   style="fill:#ffffff;fill-opacity:1;fill-rule:nonzero;stroke:none"
                   id="path1546"
                   inkscape:connector-curvature="0" />
                <path
                   d="m 129.199,813 c 0,2.562 -1.726,3.648 -4.34,3.648 h -0.05 c -2.614,0 -4.34,-1.086 -4.34,-3.648 v -10.359 c 0,-2.688 1.726,-3.649 4.34,-3.649 h 0.05 c 2.614,0 4.34,0.985 4.34,3.649 v 2.589 c 0,0.641 -0.344,0.989 -0.984,0.989 h -0.891 c -0.64,0 -0.984,-0.348 -0.984,-0.989 v -2.144 c 0,-1.207 -0.594,-1.578 -1.504,-1.578 -0.914,0 -1.508,0.371 -1.508,1.578 v 9.469 c 0,1.211 0.594,1.578 1.508,1.578 0.91,0 1.504,-0.367 1.504,-1.578 v -1.727 c 0,-0.64 0.344,-0.984 0.984,-0.984 h 0.891 c 0.64,0 0.984,0.344 0.984,0.984 z"
                   style="fill:#ffffff;fill-opacity:1;fill-rule:nonzero;stroke:none"
                   id="path1548"
                   inkscape:connector-curvature="0" />
                <path
                   d="m 136.031,813.938 h 1.899 c 0.64,0 0.984,0.343 0.984,0.984 v 0.543 c 0,0.64 -0.344,0.988 -0.984,0.988 h -6.66 c -0.641,0 -0.985,-0.348 -0.985,-0.988 v -0.543 c 0,-0.641 0.344,-0.984 0.985,-0.984 h 1.898 v -13.762 c 0,-0.641 0.348,-0.988 0.988,-0.988 h 0.887 c 0.641,0 0.988,0.347 0.988,0.988 z"
                   style="fill:#ffffff;fill-opacity:1;fill-rule:nonzero;stroke:none"
                   id="path1550"
                   inkscape:connector-curvature="0" />
                <path
                   d="m 147.027,800.422 h -5.004 v 6.906 h 4.168 c 0.321,0 0.516,0.195 0.516,0.516 v 0.199 c 0,0.32 -0.195,0.516 -0.516,0.516 h -4.168 v 6.66 h 4.934 c 0.32,0 0.516,0.199 0.516,0.519 v 0.219 c 0,0.324 -0.196,0.496 -0.516,0.496 h -5.746 c -0.32,0 -0.52,-0.172 -0.52,-0.496 v -16.273 c 0,-0.321 0.2,-0.496 0.52,-0.496 h 5.816 c 0.325,0 0.52,0.175 0.52,0.496 v 0.218 c 0,0.325 -0.195,0.52 -0.52,0.52"
                   style="fill:#ffffff;fill-opacity:1;fill-rule:nonzero;stroke:none"
                   id="path1552"
                   inkscape:connector-curvature="0" />
                <path
                   d="m 157.289,816.453 h -0.32 c -0.321,0 -0.496,-0.172 -0.496,-0.496 v -12.871 c 0,-2.047 -0.664,-2.859 -2.614,-2.859 -1.949,0 -2.613,0.812 -2.613,2.859 v 12.871 c 0,0.324 -0.172,0.496 -0.492,0.496 h -0.32 c -0.321,0 -0.52,-0.172 -0.52,-0.496 v -13.316 c 0,-2.489 1.281,-3.649 3.898,-3.649 h 0.098 c 2.613,0 3.895,1.184 3.895,3.649 v 13.316 c 0,0.324 -0.196,0.496 -0.516,0.496"
                   style="fill:#ffffff;fill-opacity:1;fill-rule:nonzero;stroke:none"
                   id="path1554"
                   inkscape:connector-curvature="0" />
                <path
                   d="m 164.984,807.844 h -2.64 v 7.375 h 2.64 c 1.946,0 2.711,-0.813 2.711,-2.86 v -1.652 c 0,-2.023 -0.765,-2.863 -2.711,-2.863 m 3.625,-8.656 h 0.395 c 0.367,0 0.516,0.25 0.394,0.593 l -2.738,7.055 c 1.578,0.418 2.367,1.578 2.367,3.449 v 2.516 c 0,2.418 -1.332,3.652 -3.945,3.652 h -3.551 c -0.32,0 -0.519,-0.172 -0.519,-0.496 v -16.273 c 0,-0.321 0.199,-0.496 0.519,-0.496 h 0.321 c 0.32,0 0.492,0.175 0.492,0.496 v 6.953 h 3.008 l 2.687,-7.028 c 0.102,-0.297 0.297,-0.421 0.57,-0.421"
                   style="fill:#ffffff;fill-opacity:1;fill-rule:nonzero;stroke:none"
                   id="path1556"
                   inkscape:connector-curvature="0" />
                <path
                   d="m 175.934,800.227 c -1.95,0 -2.715,0.812 -2.715,2.859 v 9.469 c 0,2.047 0.765,2.863 2.715,2.863 1.945,0 2.711,-0.816 2.711,-2.863 v -9.469 c 0,-2.047 -0.766,-2.859 -2.711,-2.859 M 179.977,813 c 0,2.418 -1.332,3.648 -3.946,3.648 h -0.199 c -2.613,0 -3.945,-1.207 -3.945,-3.648 v -10.359 c 0,-2.414 1.332,-3.649 3.945,-3.649 h 0.199 c 2.614,0 3.946,1.235 3.946,3.649 z"
                   style="fill:#ffffff;fill-opacity:1;fill-rule:nonzero;stroke:none"
                   id="path1558"
                   inkscape:connector-curvature="0" />
                <path
                   d="m 189.816,812.359 v -1.824 c 0,-2.047 -0.765,-2.863 -2.714,-2.863 h -2.637 v 7.547 h 2.637 c 1.949,0 2.714,-0.813 2.714,-2.86 m -6.683,3.598 v -16.273 c 0,-0.321 0.199,-0.496 0.519,-0.496 h 0.321 c 0.32,0 0.492,0.175 0.492,0.496 v 6.757 h 2.738 c 2.613,0 3.945,1.231 3.945,3.649 v 2.711 c 0,2.418 -1.332,3.652 -3.945,3.652 h -3.551 c -0.32,0 -0.519,-0.172 -0.519,-0.496"
                   style="fill:#ffffff;fill-opacity:1;fill-rule:nonzero;stroke:none"
                   id="path1560"
                   inkscape:connector-curvature="0" />
                <path
                   d="m 193.762,815.957 v -16.273 c 0,-0.321 0.199,-0.496 0.519,-0.496 h 5.821 c 0.32,0 0.515,0.175 0.515,0.496 v 0.218 c 0,0.325 -0.195,0.52 -0.515,0.52 h -5.008 v 6.906 h 4.168 c 0.32,0 0.515,0.195 0.515,0.516 v 0.199 c 0,0.32 -0.195,0.516 -0.515,0.516 h -4.168 v 6.66 h 4.933 c 0.321,0 0.516,0.199 0.516,0.519 v 0.219 c 0,0.324 -0.195,0.496 -0.516,0.496 h -5.746 c -0.32,0 -0.519,-0.172 -0.519,-0.496"
                   style="fill:#ffffff;fill-opacity:1;fill-rule:nonzero;stroke:none"
                   id="path1562"
                   inkscape:connector-curvature="0" />
                <path
                   d="m 143.598,821.445 1.507,1.071 1.512,-1.071 -0.551,1.766 1.481,1.105 -1.848,0.024 -0.594,1.754 -0.593,-1.754 -1.848,-0.024 1.481,-1.105 z"
                   style="fill:#f1ee1c;fill-opacity:1;fill-rule:nonzero;stroke:none"
                   id="path1564"
                   inkscape:connector-curvature="0" />
                <path
                   d="m 145.699,792.445 -0.594,1.75 -0.593,-1.75 -1.848,-0.023 1.481,-1.106 -0.547,-1.765 1.507,1.066 1.508,-1.066 -0.547,1.765 1.481,1.106 z"
                   style="fill:#f1ee1c;fill-opacity:1;fill-rule:nonzero;stroke:none"
                   id="path1566"
                   inkscape:connector-curvature="0" />
                <path
                   d="m 135.355,819.258 1.512,1.066 1.508,-1.066 -0.551,1.765 1.485,1.106 -1.848,0.023 -0.594,1.75 -0.594,-1.75 -1.851,-0.023 1.484,-1.106 z"
                   style="fill:#f1ee1c;fill-opacity:1;fill-rule:nonzero;stroke:none"
                   id="path1568"
                   inkscape:connector-curvature="0" />
                <path
                   d="m 151.836,819.258 1.512,1.066 1.507,-1.066 -0.55,1.765 1.484,1.106 -1.851,0.023 -0.59,1.75 -0.594,-1.75 -1.852,-0.023 1.485,-1.106 z"
                   style="fill:#f1ee1c;fill-opacity:1;fill-rule:nonzero;stroke:none"
                   id="path1570"
                   inkscape:connector-curvature="0" />
                <path
                   d="m 153.738,794.371 -0.593,1.75 -0.594,-1.75 -1.848,-0.023 1.485,-1.106 -0.551,-1.765 1.508,1.07 1.511,-1.07 -0.551,1.765 1.481,1.106 z"
                   style="fill:#f1ee1c;fill-opacity:1;fill-rule:nonzero;stroke:none"
                   id="path1572"
                   inkscape:connector-curvature="0" />
                <path
                   d="m 137.66,794.371 -0.594,1.75 -0.593,-1.75 -1.848,-0.023 1.48,-1.106 -0.55,-1.765 1.511,1.07 1.508,-1.07 -0.547,1.765 1.481,1.106 z"
                   style="fill:#f1ee1c;fill-opacity:1;fill-rule:nonzero;stroke:none"
                   id="path1574"
                   inkscape:connector-curvature="0" />
              </g>
            </g>
          </g>
        </g>
      </g>
    </g>
    <rect
       style="fill:#3f52ac;fill-opacity:1;stroke:none;stroke-width:0.20985591;stroke-opacity:1"
       id="rect1045"
       width="33.949036"
       height="13.064388"
       x="63.711941"
       y="163.81593"
       ry="0" />
    <text
       xml:space="preserve"
       style="font-style:normal;font-weight:normal;font-size:13.24843693px;line-height:1.25;font-family:sans-serif;letter-spacing:0px;word-spacing:0px;fill:#3f52ac;fill-opacity:1;stroke:#ffffff;stroke-width:0.33121094;stroke-opacity:1"
       x="65.324196"
       y="174.41104"
       id="text228-3"><tspan
         sodipodi:role="line"
         id="tspan226-1"
         x="65.324196"
         y="174.41104"
         style="fill:#3f52ac;fill-opacity:1;stroke:#ffffff;stroke-width:0.33121094;stroke-opacity:1">JOBS</tspan></text>
  </g>
</svg>
